<svg width="202" height="47" viewBox="0 0 202 47" fill="none" xmlns="http://www.w3.org/2000/svg">
<g clip-path="url(#clip0_14372_1247)">
<path fill-rule="evenodd" clip-rule="evenodd" d="M196.598 34.9676C196.598 38.1842 201.976 39.0615 201.976 34.5534C201.976 31.3368 196.598 31.2393 196.598 34.9676Z" fill="#272727"/>
<path fill-rule="evenodd" clip-rule="evenodd" d="M190.83 11.258V34.3348C190.83 38.0631 195.211 37.6245 195.211 35.1633V10.4539C195.211 7.87085 190.83 7.43222 190.83 11.258Z" fill="#272727"/>
<path fill-rule="evenodd" clip-rule="evenodd" d="M174.67 29.2415C174.67 28.1937 175.254 26.9265 175.935 26.4635C178.661 24.5628 185.037 25.7812 185.037 29.2415C185.037 32.4094 178.904 33.9933 176.081 32.0682C175.351 31.5565 174.67 30.4599 174.67 29.2415ZM172.09 17.7884C172.09 19.1531 173.136 20.2496 174.475 20.2496C175.059 20.2496 179.78 16.7162 183.893 19.3724C185.159 20.2009 185.037 20.7126 185.037 22.6865C181.411 20.2009 175.57 20.5664 172.625 23.2469C169.364 26.2198 169.656 32.6531 172.674 35.163C176.252 38.1116 181.484 38.1359 185.232 35.5773C185.475 36.5276 186.449 37.283 187.52 37.1125C188.518 36.9663 189.418 36.0403 189.418 34.9681V20.6639C189.418 19.5917 188.858 18.422 188.42 17.7884C183.966 11.3552 172.09 14.0845 172.09 17.7884Z" fill="#272727"/>
<path fill-rule="evenodd" clip-rule="evenodd" d="M161.308 22.7109H153.933V13.0854H161.308C166.662 13.0854 166.881 22.7109 161.308 22.7109ZM149.553 11.2578V34.1396C149.553 38.5502 153.933 37.5268 153.933 35.163V27.3896C159.166 27.3896 163.863 28.1693 167.149 24.7822C172.649 19.1531 169.607 8.38232 160.505 8.38232H152.352C150.599 8.40669 149.553 9.4789 149.553 11.2578Z" fill="#272727"/>
<path fill-rule="evenodd" clip-rule="evenodd" d="M130.205 25.7567C130.205 18.2756 138.528 15.3271 141.716 22.5401C144.929 29.7774 135.705 36.7711 131.373 29.68C130.789 28.754 130.205 27.2188 130.205 25.7567ZM142.373 16.3749C141.814 16.2287 141.57 15.9363 141.157 15.5951C138.577 13.5482 134.902 13.5726 132.079 15.0103C126.359 17.9345 123.755 26.7558 128.696 33.2621C131.324 36.7224 136.119 38.1845 140.11 36.1376C141.132 35.6015 141.522 35.1385 142.373 34.5536C142.446 37.7946 146.365 37.161 146.365 34.7486V10.6484C146.365 8.13843 142.349 7.06623 142.373 11.2576C142.373 12.9633 142.373 14.6691 142.373 16.3749Z" fill="#272727"/>
<path fill-rule="evenodd" clip-rule="evenodd" d="M115.456 19.0312C119.326 19.0312 120.007 21.1269 121.249 23.7343H110.686C110.857 21.6386 113.12 19.0312 115.456 19.0312ZM106.5 24.7334C106.5 28.1937 106.646 30.0944 108.618 32.9942C112.366 38.5502 119.375 37.9653 122.49 33.9689C123.634 32.5068 124.68 31.2397 123.512 29.607C121.735 27.1215 119.642 31.0204 119.545 31.1422C116.04 34.7244 111.003 31.5809 110.711 28.0231C112.755 28.0231 123.512 28.3886 124.51 27.6576C125.191 27.1458 125.508 26.366 125.386 25.2451C125.021 22.1503 124.315 19.7135 122.222 17.4229C118.353 13.1828 111.611 13.6946 108.277 19.1774C107.547 20.3471 106.5 22.9789 106.5 24.7334Z" fill="#272727"/>
<path fill-rule="evenodd" clip-rule="evenodd" d="M99.7101 17.1789C99.199 15.2051 95.7188 15.9117 95.7188 18.0074V35.1627C95.7188 37.234 99.0286 37.8432 99.8804 35.7475C100.562 34.1148 99.5641 24.0995 100.343 22.3206C101.9 18.7385 104.991 20.6879 106.549 19.8838C108.106 19.104 108.812 15.7168 103.896 15.7168C101.827 15.7655 100.927 16.3504 99.7101 17.1789Z" fill="#272727"/>
<path fill-rule="evenodd" clip-rule="evenodd" d="M70.6033 22.0777C70.6033 26.5127 71.6741 30.0461 74.3512 32.751C78.8293 37.3079 85.3274 38.4532 90.4626 35.2609C96.6442 31.4351 92.8233 29.2176 92.3365 29.2176C89.7811 29.2176 91.2413 29.5344 88.2722 31.3864C79.7298 36.6987 70.4086 25.1237 77.2717 16.0344C79.6081 12.9396 84.3782 11.7943 88.2722 14.2068C90.3165 15.4739 90.6329 16.5705 91.7524 16.5705C93.4317 16.5705 96.4982 14.0118 90.0732 10.1129C85.011 7.0425 78.8293 8.26091 74.6433 12.5254C73.2317 13.9631 72.8666 14.5723 71.9418 16.4974C71.163 18.0569 70.6033 19.8602 70.6033 22.0777Z" fill="#272727"/>
<path fill-rule="evenodd" clip-rule="evenodd" d="M0 22.9057C0 28.8515 2.45807 35.0898 6.37639 39.0862C14.067 46.9084 25.2622 48.2974 34.5347 42.4977C35.3622 41.986 36.7007 40.9625 37.3335 40.3046C42.8824 34.6755 41.9333 33.2134 41.9333 25.1475V15.4002C41.9333 12.2811 42.9067 10.4291 44.2696 8.67461C45.9976 6.4571 48.6504 5.67731 51.6195 5.67731C58.8234 5.67731 63.3501 15.4002 57.6065 21.541C55.5865 23.7098 52.0819 24.8795 48.9181 24.0266C47.8959 23.7586 47.8959 23.5149 46.6547 23.5149C44.1479 23.5149 42.712 27.6818 46.0949 28.9734C51.3761 30.9716 56.5113 29.5826 60.6973 26.1223C70.1159 18.3732 65.4431 -0.000488281 51.0354 -0.000488281C48.6017 -0.000488281 45.8516 0.828032 44.2453 1.75403C40.619 3.8497 37.8202 7.30999 36.9198 11.6719C36.36 14.328 36.6034 25.2694 36.6034 28.7784C36.6034 33.0185 35.7516 35.1142 32.3443 37.3804C25.6029 41.8642 16.5007 41.5718 10.8545 35.7234C9.49157 34.31 8.15301 32.7261 7.27687 30.8741C4.52675 25.0501 5.03783 18.1782 8.63976 12.8659C9.02916 12.3055 9.17518 12.2324 9.54024 11.7694C9.92964 11.282 9.97831 11.1358 10.4407 10.6728C12.6554 8.38219 17.0118 5.65295 21.3682 5.65295C23.7289 5.65295 24.6537 5.55547 26.9901 6.16468C28.7424 6.62768 28.5234 7.06631 30.6651 7.06631C32.466 7.06631 32.8311 5.23869 32.8311 3.82533C32.8554 1.09608 25.7246 -0.000488281 22.5607 -0.000488281C18.7641 -0.000488281 16.087 0.901137 13.4342 1.99771C12.0957 2.53381 11.0005 3.24049 9.85663 4.02027C9.27253 4.43453 8.83446 4.80006 8.29904 5.26305C7.98265 5.53111 7.8853 5.67731 7.59325 5.94537C5.79229 7.55367 4.28337 9.28382 3.09084 11.5013C2.67711 12.2811 2.4094 12.5979 2.04434 13.4752C0.924819 16.2775 0 19.0311 0 22.9057Z" fill="#272727"/>
</g>
<defs>
<clipPath id="clip0_14372_1247">
<rect width="202" height="46.056" fill="white"/>
</clipPath>
</defs>
</svg>
