<svg width="54" height="64" viewBox="0 0 54 64" fill="none" xmlns="http://www.w3.org/2000/svg">
<path fill-rule="evenodd" clip-rule="evenodd" d="M51.8792 11.1356C51.404 8.58143 49.8915 7.32284 48.524 6.82796C47.0487 6.2926 44.0571 5.73804 40.2984 5.29325C37.2744 4.93572 33.7201 4.96418 31.5732 5.03081C31.3155 3.25892 30.0776 1.64025 28.6925 1.07985C25.0021 -0.41151 19.3 -0.0512185 17.8361 0.360701C16.6727 0.687125 15.3851 1.35619 14.6685 2.38698C14.1879 3.07557 13.8769 3.95777 13.8745 5.19022C13.8745 5.88774 13.8938 7.5309 13.9115 8.9907C13.9262 10.2097 13.9419 11.3216 13.9467 11.6651L13.9467 11.666L13.9482 11.7739C13.9476 13.0777 12.895 14.1388 11.5907 14.1405H5.60708C4.33084 14.1405 3.35555 14.3558 2.61068 14.6956C1.8646 15.0357 1.33619 15.4943 0.934689 16.0367C0.135428 17.1137 -0.00323974 18.443 5.66184e-05 19.7994C5.66184e-05 19.7994 0.0118138 20.9079 0.277831 23.0533C0.498908 24.7134 2.29203 36.31 3.99527 39.8369C4.65553 41.2091 5.09549 41.7806 6.39283 42.3854C9.28342 43.6279 15.886 45.0101 18.9805 45.4059C19.4923 45.4717 19.9725 45.5494 20.4228 45.6223L20.4229 45.6224C22.6904 45.9895 24.1996 46.2338 25.1635 44.2047C25.1673 44.1988 25.395 43.5996 25.708 42.7209C26.711 39.6692 26.8507 36.9615 26.8507 35.0022C26.8507 34.8029 27.1419 34.7938 27.1419 35.0022C27.1419 35.0792 27.1411 35.167 27.1402 35.2645C27.1248 36.9192 27.0837 41.3539 30.562 42.5941C32.016 43.1118 35.0323 43.5734 38.0972 43.934C40.8684 44.2538 42.8795 45.3487 42.8795 52.4868C42.8795 56.8296 41.9711 57.425 37.2214 57.425L36.8682 57.4252C33.2811 57.4281 31.9038 57.4293 31.9038 54.4542C31.9038 52.1836 33.9501 52.2079 35.686 52.2285C35.8477 52.2304 36.0066 52.2323 36.161 52.2323C36.6704 52.2323 36.6265 51.9928 36.524 51.4336L36.524 51.4335C36.4636 51.1042 36.3829 50.664 36.3829 50.0966C36.3829 49.4509 36.5534 48.9207 36.6815 48.5224C36.8556 47.981 36.9513 47.6833 36.4342 47.6704C30.1682 47.4973 26.4812 47.6632 26.4812 55.5311C26.4812 62.6737 29.2038 64 38.0972 64C45.0701 64 47.5281 63.7708 50.4073 54.8018C50.9772 53.0312 52.355 47.6278 53.1889 38.5554C53.7158 32.819 52.6917 15.5054 51.8792 11.1356ZM39.7244 30.2738C38.863 30.2436 38.0344 30.2982 37.2617 30.4229C37.4792 28.6597 38.204 26.4962 40.7719 26.5867C43.6145 26.6849 44.0128 29.3822 44.023 31.2093C42.8244 30.6728 41.3405 30.3309 39.7244 30.2738ZM5.33065 12.3979H5.32669C3.85739 12.3979 2.62992 12.6493 1.61761 13.1079C1.57155 13.1281 1.24848 13.2886 1.00859 13.4078L1.00195 13.4111C1.00855 13.3861 1.02272 13.3618 1.04547 13.343L12.6698 1.76988C12.6926 1.74705 12.7155 1.73579 12.7384 1.73193L12.5338 2.11771C12.1056 2.97663 11.8599 4.00179 11.8599 5.17754V5.19442C11.8599 6.5719 11.9271 11.3902 11.9322 11.7543L11.9325 11.7761C11.9317 12.1176 11.6561 12.3979 11.3132 12.3979H5.33065Z" fill="#20C05C"/>
</svg>
