<svg width="132" height="132" viewBox="0 0 132 132" fill="none" xmlns="http://www.w3.org/2000/svg">
<g filter="url(#filter0_d_14372_1166)">
<rect x="6" y="2" width="120" height="120" rx="16" fill="white"/>
<path d="M66.0007 42.3733C72.0096 42.3733 76.063 44.9689 78.3741 47.1378L87.4052 38.32C81.8585 33.1644 74.6407 30 66.0007 30C53.4852 30 42.6763 37.1822 37.4141 47.6356L47.7607 55.6711C50.3563 47.9556 57.5385 42.3733 66.0007 42.3733Z" fill="#EA4335"/>
<path d="M96.72 62.7119C96.72 60.0808 96.5067 58.1608 96.0444 56.1697H66V68.0452H83.6356C83.28 70.9963 81.36 75.4408 77.0933 78.4275L87.1911 86.2497C93.2356 80.6675 96.72 72.4541 96.72 62.7119Z" fill="#4285F4"/>
<path d="M47.7956 68.3315C47.12 66.3404 46.7289 64.2071 46.7289 62.0026C46.7289 59.7982 47.12 57.6649 47.76 55.6737L37.4133 47.6382C35.2444 51.976 34 56.8471 34 62.0026C34 67.1582 35.2444 72.0293 37.4133 76.3671L47.7956 68.3315Z" fill="#FBBC05"/>
<path d="M66.0003 94.0012C74.6403 94.0012 81.8937 91.1567 87.1914 86.2501L77.0937 78.4279C74.3914 80.3123 70.7648 81.6279 66.0003 81.6279C57.5381 81.6279 50.3559 76.0456 47.7959 68.3301L37.4492 76.3656C42.7114 86.819 53.4848 94.0012 66.0003 94.0012Z" fill="#34A853"/>
</g>
<defs>
<filter id="filter0_d_14372_1166" x="0" y="0" width="132" height="132" filterUnits="userSpaceOnUse" color-interpolation-filters="sRGB">
<feFlood flood-opacity="0" result="BackgroundImageFix"/>
<feColorMatrix in="SourceAlpha" type="matrix" values="0 0 0 0 0 0 0 0 0 0 0 0 0 0 0 0 0 0 127 0" result="hardAlpha"/>
<feOffset dy="4"/>
<feGaussianBlur stdDeviation="3"/>
<feComposite in2="hardAlpha" operator="out"/>
<feColorMatrix type="matrix" values="0 0 0 0 0.13776 0 0 0 0 0.137186 0 0 0 0 0.137186 0 0 0 0.15 0"/>
<feBlend mode="normal" in2="BackgroundImageFix" result="effect1_dropShadow_14372_1166"/>
<feBlend mode="normal" in="SourceGraphic" in2="effect1_dropShadow_14372_1166" result="shape"/>
</filter>
</defs>
</svg>
