<svg width="1440" height="850" viewBox="0 0 1440 850" fill="none" xmlns="http://www.w3.org/2000/svg">
<path d="M273.076 37.4334C165.772 37.5334 -1 14.2298 -1 14.2298V814.456C-1 814.456 99.4666 837.977 206.5 837.977C396.424 837.977 410.911 823.349 524 837.977C732 864.881 738.57 837.977 883.5 837.977C1052.5 837.977 1141.28 835.02 1250.5 814.456C1346.5 796.381 1441 814.456 1441 814.456V14.2298C1441 14.2298 1315.27 -4.18321 1224 0.88149C1111.25 7.13842 1002.69 29.9012 890 37.4334C744.004 47.1913 698.227 24.3788 552 24.3817C445.865 24.3837 379.211 37.3344 273.076 37.4334Z" fill="#F3F3F3"/>
</svg>
