<svg width="64" height="64" viewBox="0 0 64 64" fill="none" xmlns="http://www.w3.org/2000/svg">
<path fill-rule="evenodd" clip-rule="evenodd" d="M60.8338 45.7342L60.828 45.7552C60.6341 46.4645 55.839 64.0058 37.8313 64.0005C22.0152 63.9956 14.5186 50.0871 14.5186 50.0871C13.3659 50.1521 12.2537 49.9669 11.2278 49.5856C6.58752 47.861 4.36112 42.4901 5.96216 37.9841L3.41185 36.0123C-6.46728 28.3984 21.5185 -6.44286 31.4148 1.44101C31.4648 1.48085 33.7771 3.36385 33.7771 3.36385C37.3304 1.18077 40.8494 0.000616962 43.7099 0.000488364C45.7414 0.000231418 47.4403 0.595255 48.5845 1.84866C51.1531 4.66236 50.23 10.0354 46.7225 15.4753C47.4769 16.1999 48.1022 17.1847 48.5484 18.1623C49.6634 19.0328 50.3862 20.3561 50.7453 22.1837C50.9674 23.3125 51.0917 24.7073 51.2014 25.9376V25.9376C51.2891 26.9223 51.3674 27.8015 51.479 28.3545C51.7156 28.4625 51.8678 28.531 51.9788 28.581C52.0832 28.628 52.1512 28.6586 52.2187 28.6902C52.3445 28.7493 52.4686 28.812 52.8242 28.9919C52.8856 29.0229 52.954 29.0575 53.0304 29.0961C54.0819 29.6278 55.3624 30.2752 56.7774 31.6528C59.2927 32.2904 60.2532 34.9958 58.7814 36.8424C58.7419 36.8918 58.5642 37.1049 58.3801 37.3168C58.3869 37.3348 58.4039 37.3685 58.4291 37.4185C58.5687 37.6953 58.9598 38.4712 59.2547 39.8347C60.297 40.0838 61.1272 40.733 61.5629 41.6745C62.3164 43.5172 60.8338 45.7342 60.8338 45.7342ZM53.5806 59.4093V60.1673H53.8676V59.4093H54.161V59.1702H53.291V59.4093H53.5806ZM54.25 60.1671V59.1699H54.6589L54.8383 59.7437L55.015 59.1699H55.4241V60.1671H55.1624V59.4452L54.9486 60.1671H54.7255L54.5117 59.4471V60.1671H54.25Z" fill="#5B453E"/>
<path fill-rule="evenodd" clip-rule="evenodd" d="M59.227 44.6635C59 45.5135 57.887 49.6794 53.4324 53.1927C47.245 58.0732 39.1155 57.5793 36.0452 54.8443C34.405 53.3043 33.695 51.1019 33.695 51.1019C33.695 51.1019 33.5093 52.343 33.4776 52.8305C32.2403 50.7183 32.3449 48.1384 32.3449 48.1384C32.3449 48.1384 31.6848 49.3738 31.3827 50.0658C30.4721 47.7395 30.9426 45.3372 30.9426 45.3372L30.2222 46.4151C30.2222 46.4151 29.8843 43.7821 30.7137 41.5889C31.6001 39.2453 33.3189 37.5429 33.6585 37.3307C32.3546 36.9146 30.8523 35.7219 30.8498 35.7198C30.8498 35.7198 31.4471 35.7594 31.8624 35.6637C31.8624 35.6637 29.2259 33.7679 28.7637 30.8671C29.1456 31.3409 29.947 31.8761 29.947 31.8761C29.6876 31.117 29.5306 29.4282 29.773 27.766L29.7739 27.7643C30.2726 24.589 32.8797 22.5213 35.8327 22.5473C36.3969 22.5523 36.9278 22.5777 37.4343 22.602C39.7499 22.713 41.5563 22.7996 43.7188 20.798C43.7492 20.7698 43.7793 20.7418 43.8092 20.7141C44.3261 20.2339 44.7645 19.8267 45.5046 19.662C45.5192 19.6588 45.5377 19.6534 45.5605 19.6467C45.6664 19.6159 45.8663 19.5576 46.2121 19.5576C46.6373 19.5576 47.0468 19.6536 47.4214 19.8775C48.851 20.7315 49.1591 22.959 49.3128 24.5923C49.66 28.2949 49.7092 29.3316 50.2525 29.8631C50.5982 30.2013 51.1439 30.335 52.0936 30.8207C52.206 30.878 52.3198 30.9351 52.4349 30.9928C53.5132 31.5337 54.7121 32.1351 56.0581 33.5818C56.0656 33.5899 56.0763 33.5947 56.0873 33.5949C57.3438 33.6252 57.9915 34.6182 57.4117 35.3412C53.1954 40.3954 47.3066 42.8156 40.7438 43.0182C40.5341 43.0235 40.1223 43.0331 39.9447 43.0373C39.8925 43.0385 39.8605 43.0393 39.8598 43.0393C37.2091 43.1199 36.346 46.5619 38.0092 48.632C39.0603 49.9403 41.0822 50.3703 42.7463 50.3767L42.7699 50.3683C49.9454 50.5142 57.1543 45.4175 58.3994 42.607C58.4084 42.5867 58.4844 42.4077 58.4844 42.4077C58.4844 42.4077 58.4182 42.4857 58.3381 42.5515C58.3343 42.5542 58.3153 42.5716 58.2818 42.6023C57.6017 43.2259 50.9287 49.3447 42.7132 49.1136C42.7132 49.1136 41.7846 49.0943 40.9103 48.8899C39.7573 48.6206 38.8813 48.1122 38.546 46.9586C38.4464 46.7473 38.3892 46.0164 38.5216 45.5243C38.8821 44.3129 39.4861 44.3023 40.4205 44.2859C40.5603 44.2835 40.7075 44.2809 40.8625 44.2741H40.8626C45.113 44.1321 48.5428 43.0593 51.1133 41.8343C53.8543 40.5281 55.9433 38.8451 56.6959 37.9955C57.6722 39.6454 57.6663 41.7639 57.6663 41.7639C57.6663 41.7639 58.0492 41.6297 58.5561 41.6297C60.1492 41.6298 60.477 43.0601 59.2711 44.5119C59.2636 44.5265 59.2498 44.5784 59.227 44.6635ZM19.6229 36.8867C19.6229 36.8867 19.4245 37.7109 19.031 38.715C18.6531 35.5012 17.3094 34.8211 17.3094 34.8212C16.5309 34.4591 15.6702 34.2581 14.7652 34.2581C11.2737 34.2581 8.44336 37.2491 8.44336 40.9387C8.44336 44.6281 11.2737 47.6191 14.7652 47.6191C18.6977 47.6191 21.6828 43.8607 20.9879 39.7548C20.9879 39.7548 20.587 40.6943 20.2134 41.1932C20.3039 39.7234 20.0734 38.2693 19.6229 36.8867Z" fill="#F2D8B4"/>
<path d="M6.44388 35.5552C6.41867 35.5487 4.04237 33.8573 3.70433 33.3004C1.70495 30.0281 5.18341 23.3067 7.65875 19.4862C13.7759 10.044 23.958 2.59241 28.5825 3.65656L33.3316 6.0341C31.4876 7.08609 29.7042 8.37823 28.6359 9.23761L27.6253 10.0595C27.6253 10.0595 24.6742 11.9865 23.2065 13.2012C17.3229 18.0704 11.5298 25.6083 9.38151 32.8844C9.38151 32.8842 7.61632 33.7341 6.44388 35.5552Z" fill="#207EAC"/>
<path d="M29.7767 3.66517C25.0627 2.51066 14.6842 10.5949 8.44878 20.839C8.44697 20.8419 8.44517 20.845 8.44336 20.8479L8.46853 20.8507L13.437 24.8885C18.8923 15.9494 25.7487 11.3402 25.9421 11.2048L25.1544 5.73352L26.6301 5.00413L29.5918 5.99419L29.3652 4.97281L29.7767 3.66517Z" fill="#4FB1D3"/>
<path d="M36.8874 4.99733L31.4923 8.61151L31.1148 8.89285L26.3306 5.17001L26.2207 4.46597L27.8841 3.70746C27.9695 3.73379 31.0908 4.69645 31.2225 4.73706L31.2782 2.7631L31.431 2.31504L32.8923 1.78174C32.8943 1.78312 36.8818 4.99276 36.8874 4.99733Z" fill="#FACD55"/>
<path d="M42.8204 1.78174C39.7726 1.78174 36.3509 3.47192 33.726 5.13367C33.3578 5.36211 32.9925 5.60117 32.6346 5.84481L31.2612 4.63091L31.76 6.45884C31.5715 6.59541 31.3874 6.73158 31.2071 6.86697L28.3693 5.95333L30.247 7.61062C29.8183 7.95322 29.4353 8.27393 29.1176 8.55165L24.6146 4.6313L24.853 6.38833L28.1258 9.42872C28.1258 9.42872 25.2295 11.4846 23.7891 12.7808C18.0147 17.9758 12.3291 26.0185 10.2207 33.7817L10.3405 33.7107C10.3568 33.7011 10.3732 33.6933 10.3895 33.6838C10.4482 33.6505 10.5066 33.6188 10.5653 33.5876C10.6029 33.5677 10.6404 33.5475 10.678 33.5285C10.7383 33.498 10.7987 33.4695 10.8591 33.4415C10.8947 33.4249 10.9305 33.4074 10.9662 33.3918C11.0315 33.3629 11.0968 33.3366 11.1622 33.3106C11.1924 33.2985 11.2226 33.2853 11.2528 33.274C11.348 33.238 11.4429 33.2048 11.5375 33.175C12.9709 32.7242 14.9211 32.4343 17.2041 33.4564C18.3505 30.4075 19.7202 27.3055 21.8788 24.3249C23.629 21.9081 25.3113 19.7506 27.3306 18.5639C31.1539 14.777 41.4588 10.7614 44.7602 14.2421C45.5408 12.8957 46.2183 11.6211 46.7764 10.0234C48.1539 6.18099 48.179 1.78174 42.8204 1.78174Z" fill="#131B23"/>
<path d="M31.5551 5.33295L30.4357 3.55518L29.7773 4.44086L30.1714 5.13708L31.5551 5.33295Z" fill="#131B23"/>
<path fill-rule="evenodd" clip-rule="evenodd" d="M41.9075 1.78174C40.234 1.95723 38.4892 2.56609 36.8613 3.33671C31.366 5.98312 27.5305 9.88694 27.0705 10.3552C27.0507 10.3753 27.0372 10.389 27.03 10.3961C26.5736 10.8457 26.1186 11.3114 25.6672 11.7907C24.3244 13.2162 23.0126 14.7601 21.7833 16.3476C19.6096 19.1545 18.7051 20.4644 17.332 23.1324C17.3318 23.1327 17.3412 23.1212 17.3596 23.0986C17.8557 22.4886 24.9058 13.8214 26.7098 11.9839C30.1429 8.48716 35.7622 4.59287 35.8207 4.55817C38.2202 3.0505 40.2454 2.16568 41.9075 1.78174ZM55.497 36.9778C56.4429 38.613 56.4371 40.7127 56.4371 40.7127C56.4534 41.3153 56.4341 41.6477 56.4013 42.1138C54.4831 43.7767 48.7641 48.1932 41.9498 47.9969C41.9498 47.9969 41.05 47.9779 40.2029 47.7753C39.0919 47.51 38.2463 47.0098 37.9175 45.8796L37.9123 45.8613L37.9117 45.8599C37.9066 45.8483 37.8643 45.7464 37.837 45.5271L37.836 45.5185L37.8351 45.5103C37.8289 45.4556 37.8238 45.3975 37.8202 45.3368L37.8191 45.3156L37.8187 45.3086C37.8138 45.2116 37.8126 45.1005 37.8166 44.9743C37.8183 44.9301 37.821 44.886 37.8245 44.8419L37.825 44.842L37.8255 44.828C37.837 44.6917 37.8573 44.5586 37.8887 44.4396C38.238 43.2389 38.8232 43.2285 39.7285 43.2122C39.8639 43.2098 40.0066 43.2072 40.1567 43.2006H40.1568C44.2749 43.0598 47.598 41.9964 50.0883 40.7825C52.7439 39.4879 54.7678 37.8198 55.497 36.9778Z" fill="#FFFFFE"/>
<path fill-rule="evenodd" clip-rule="evenodd" d="M48.4546 26.4185C48.7534 29.6031 48.8244 30.3594 49.4556 30.8081C49.473 30.8251 49.4907 30.8396 49.5086 30.8514C49.0848 30.9751 48.7055 31.0913 48.3692 31.1977C47.7494 30.3575 46.8889 29.572 45.12 29.6997C42.7756 29.9009 40.9126 31.9967 41.25 34.078C40.136 34.6399 39.0984 35.2227 38.1334 35.816C36.5413 35.9866 34.6017 36.5364 32.8911 37.9686C31.6017 37.5625 30.1161 36.3985 30.1135 36.3964C30.1135 36.3964 30.7043 36.4351 31.1149 36.3417C31.1149 36.3417 31.0864 36.3214 31.0351 36.2821C31.0336 36.2803 31.032 36.2784 31.0303 36.2767L31.0271 36.2741C30.9922 36.2467 30.9564 36.2194 30.9202 36.1919C30.3069 35.6988 28.4319 34.0202 28.0508 31.6601C28.4284 32.1225 29.221 32.6448 29.221 32.6448C29.2114 32.6176 29.2022 32.5891 29.1931 32.5595C29.1944 32.5551 29.1952 32.5505 29.1952 32.5458C29.1952 32.5458 29.0851 32.2321 29.008 31.6275C28.9867 31.4576 28.9694 31.2767 28.9562 31.0872C28.9479 30.9595 28.9415 30.8239 28.9377 30.6801C29.0348 29.487 29.339 28.4847 30.0969 27.5364C31.2021 26.1538 32.7185 25.592 34.4681 25.619C34.9498 25.6251 35.4365 25.6748 35.9437 25.7266C36.4308 25.7764 36.9368 25.8281 37.4756 25.8449C38.9783 25.8919 40.4258 25.6442 41.9488 24.9613C43.4538 24.2506 44.3046 23.4305 45.1952 22.1571C45.5089 21.8137 46.0624 21.3111 46.552 21.3324C46.8766 21.3324 47.1019 21.4919 47.2622 21.6306C48.0373 22.6674 48.2518 24.2813 48.3714 25.536C48.4011 25.8491 48.4287 26.1426 48.4545 26.418L48.4546 26.4185ZM43.8789 32.5624C44.2406 31.4075 45.8811 30.852 46.8715 31.5499C46.429 31.805 46.2926 32.5444 46.5626 32.9734C46.0028 32.9631 45.4274 33.1823 45.0227 33.5703C45.0603 33.0206 44.4521 32.591 43.8789 32.5624ZM49.863 55.1113C50.7484 54.6499 51.6158 54.0995 52.4477 53.4518C56.8521 50.0233 57.953 45.9579 58.1778 45.1276C58.2004 45.0443 58.2141 44.9935 58.2215 44.9792C56.1824 47.5912 53.5151 49.667 50.661 51.1039C48.3143 52.2862 46.5586 52.6975 46.5586 52.6975C46.5586 52.6975 47.8153 54.3403 49.863 55.1113ZM36.4802 45.6424C36.7923 44.4919 37.6734 43.5805 39.024 43.5399L39.1092 43.5379C39.2855 43.5338 39.6913 43.5245 39.8981 43.5192C46.3879 43.3216 52.2111 40.9594 56.3805 36.0265C56.9538 35.3209 56.3134 34.3517 55.0709 34.3222L55.0618 34.3221L55.0531 34.3222C54.9457 34.4347 54.8833 34.5948 54.8016 34.8047L54.8016 34.8048C54.7235 35.0054 54.6276 35.2516 54.4577 35.5452C53.1895 37.7281 51.4355 38.7263 49.0964 39.8844C45.2942 41.7598 42.4625 42.1782 40.4186 42.4802C38.6076 42.7477 37.4151 42.9239 36.714 43.9413C36.2802 44.5787 36.2721 45.2906 36.4802 45.6424ZM50.3052 44.8274C50.2873 44.8278 50.2688 44.8317 50.2393 44.8382C50.1468 44.8594 49.9416 44.9258 49.6445 45.0219C47.6711 45.66 41.6423 47.6097 37.6383 46.3637C37.6176 46.6135 37.6243 47.1382 37.7275 47.3662L37.728 47.3676C38.4249 47.506 39.3069 47.5945 40.3306 47.5945C46.3927 47.5945 50.7615 44.8638 50.3052 44.8274ZM16.3934 44.2647L16.3881 44.2682C13.5395 44.4763 10.9054 40.8696 12.4606 38.8808C12.6735 38.722 12.8558 38.6306 12.9278 38.5945C12.9404 38.5882 12.9497 38.5836 12.9551 38.5806C12.9967 38.5587 13.0393 38.5409 13.0835 38.5224C13.1142 38.5096 13.1456 38.4965 13.178 38.4815C13.2092 38.4686 13.245 38.4578 13.2845 38.4467C13.4108 38.4114 13.438 38.4015 13.4657 38.3936C13.4934 38.3857 13.5216 38.3799 13.6492 38.3532H13.649C15.0325 38.0627 16.0085 38.6693 16.4334 39.2657C16.6291 39.5402 16.6712 39.7465 16.7017 39.8962C16.7116 39.9448 16.7203 39.9875 16.7327 40.0246L16.7329 40.0264C16.4017 39.5686 15.9739 39.4683 15.9739 39.4683C15.6132 39.3259 14.9202 39.5434 14.875 40.3165C14.8541 40.6138 14.9435 40.9471 15.2003 41.24L15.2022 41.2422C15.2114 41.2525 15.2207 41.2629 15.2304 41.2733C15.2392 41.2829 15.2482 41.2923 15.2573 41.3015C15.4677 41.5177 15.7179 41.6749 15.9568 41.8251C16.3668 42.0827 16.7435 42.3196 16.8296 42.7971C16.9173 43.3224 16.7625 43.8716 16.3934 44.2647Z" fill="#E2B986"/>
<path fill-rule="evenodd" clip-rule="evenodd" d="M44.577 13.889C42.2845 12.0965 35.5931 12.6041 28.8941 17.0194C25.8268 19.0409 23.5777 21.252 21.844 23.5493C21.844 23.5493 24.5202 18.376 30.4006 14.9543C29.9907 14.8873 29.0267 15.0045 28.7503 15.0382C28.7313 15.0405 28.7156 15.0424 28.7035 15.0438C29.7718 14.1095 31.7564 13.4857 33.1278 13.2022C32.7264 12.9425 31.7705 12.8769 31.296 12.8641C31.1666 12.8606 31.1579 12.861 31.0272 12.8666C31.0162 12.8671 31.0043 12.8676 30.9915 12.8681C32.2813 12.1347 34.673 11.7043 36.8471 12.0931C36.5739 11.7243 35.9542 11.4552 35.5198 11.3243C35.4819 11.3128 35.3114 11.2697 35.3114 11.2697C35.3114 11.2697 35.4567 11.2348 35.4751 11.2311C36.7848 10.9747 38.3147 11.2516 39.525 11.7458C39.3876 11.4214 39.0517 11.0437 38.7992 10.8045C38.7734 10.7801 38.6226 10.6699 38.6226 10.6699C39.8889 10.9368 41.1022 11.4984 42.0153 12.1361C41.8912 11.8922 41.5841 11.4818 41.3718 11.2576C42.5818 11.6097 43.94 12.487 44.5221 13.7447C44.5355 13.7714 44.5689 13.8645 44.5763 13.8852L44.5774 13.8882L44.577 13.889ZM39.2074 30.675C39.3381 30.8693 39.373 31.016 39.3203 31.077C39.2256 31.1896 38.9114 31.064 38.4445 30.8773C38.3927 30.8566 38.3391 30.8351 38.2836 30.8132C36.8624 30.274 35.8153 30.1919 33.9617 30.9053L33.8136 30.963C33.4227 31.1158 33.1433 31.225 33.0012 31.2035C32.7412 31.1642 32.9929 30.6803 33.561 30.2109C34.7041 29.2836 36.2741 28.9957 37.6156 29.5035C38.2029 29.7232 38.8624 30.1619 39.2074 30.675ZM38.9263 32.1539C38.5367 31.8513 37.8192 31.6483 37.0742 31.777C36.9578 31.7951 36.8481 31.827 36.7409 31.8581L36.7406 31.8582C36.7039 31.8689 36.6676 31.8794 36.6313 31.8893C36.5792 31.9024 36.5295 31.9211 36.4809 31.9418C36.1729 32.0738 35.9063 32.2159 35.6475 32.4681C35.3506 32.7598 35.2663 33.0307 35.3521 33.0974C35.4256 33.157 35.591 33.0878 35.8424 32.9826L35.8426 32.9825L35.8429 32.9824C35.8799 32.9669 35.9188 32.9506 35.9595 32.9339C37.0232 32.4842 37.7761 32.4723 38.4932 32.5231L38.5443 32.5266C38.8619 32.5486 39.0733 32.5632 39.1243 32.4721C39.1622 32.4071 39.0934 32.2835 38.9263 32.1539ZM16.0184 37.7029L16.0181 37.7027C15.4368 37.226 14.6128 37.0003 13.6555 37.2066H13.6557L13.6383 37.2104C13.5261 37.2346 13.4993 37.2404 13.4731 37.248C13.4649 37.2504 13.4567 37.253 13.446 37.2564L13.4459 37.2564C13.4206 37.2645 13.3809 37.277 13.2926 37.3023C13.2532 37.3135 13.2175 37.3247 13.1867 37.3377C13.1546 37.353 13.1235 37.3663 13.0932 37.3793L13.0931 37.3794L13.093 37.3794L13.093 37.3794L13.093 37.3794C13.0488 37.3984 13.0062 37.4166 12.9647 37.4391C12.9594 37.4421 12.9503 37.4468 12.9379 37.4532C12.8153 37.5161 12.3693 37.745 12 38.2045C11.8026 38.4534 11.651 38.7303 11.5403 39.015C11.3403 39.5411 11.2656 40.1176 11.287 40.6716C11.3163 41.4278 11.5142 41.8817 11.5882 42.0515L11.5883 42.0515C11.5971 42.0718 11.6042 42.088 11.609 42.1002C11.798 42.5132 11.3552 42.5981 10.9512 42.1542L10.9502 42.1532C10.627 41.8053 10.42 41.2755 10.3188 40.8049V40.8047C10.259 40.525 10.2207 40.2112 10.2207 39.8735C10.2207 39.4818 10.2723 39.0578 10.4019 38.6187L10.402 38.618L10.4021 38.6177C10.7525 37.4641 11.5399 36.5929 12.7365 36.1185C12.8125 36.0881 12.8969 36.0657 12.9761 36.0446L12.9762 36.0446L12.9763 36.0446C13.0121 36.035 13.0469 36.0258 13.0792 36.0162L13.0781 36.0165C13.2797 35.9553 14.0014 35.8068 14.7351 35.9228C15.1597 35.9897 15.5459 36.1326 15.8787 36.3211C16.2109 36.5093 16.4903 36.7429 16.7025 36.9935L16.7033 36.9946C17.0501 37.3955 17.3118 37.9613 17.2652 38.4647L17.2651 38.466C17.2477 38.6753 17.1566 38.9753 16.9711 39.0532C16.902 39.0818 16.8329 39.0666 16.7845 39.0183C16.7302 38.9642 16.7149 38.8871 16.6942 38.7833C16.6639 38.6304 16.622 38.4195 16.427 38.139C16.3273 37.995 16.1934 37.8443 16.0188 37.7032L16.0184 37.7029ZM15.8127 39.5823C15.6804 39.4759 15.619 39.3849 15.5825 39.245C15.5285 38.9901 15.5566 38.842 15.7709 38.689C15.8174 38.6566 15.8613 38.629 15.9004 38.6043L15.9004 38.6043C16.0002 38.5415 16.0688 38.4983 16.0692 38.4465C16.0766 38.3098 15.5247 38.1692 15.1387 38.5555C14.8184 38.9026 14.7172 39.6262 15.2284 40.1902C15.4436 40.4263 15.7039 40.5942 15.952 40.7541C16.3599 41.0172 16.7346 41.2588 16.8203 41.747C16.8384 41.8583 16.8519 41.9821 16.8424 42.1044C16.8442 42.2299 16.8074 42.4048 16.798 42.4495L16.796 42.4596C16.6248 43.218 15.917 43.9416 14.7499 43.7572L14.6992 43.7496H14.6992C14.513 43.7215 14.3923 43.7033 14.3541 43.7588C14.2641 43.8862 14.7643 44.4681 15.6799 44.447C16.5758 44.4277 17.4645 43.7457 17.7494 42.7205L17.7514 42.7132C17.7646 42.6644 17.8372 42.3974 17.8436 42.1562C17.8597 41.9633 17.846 41.7648 17.8106 41.5573C17.6363 40.5741 16.8747 40.1744 16.301 39.8734C16.1066 39.7713 15.9337 39.6806 15.8127 39.5823ZM46.2569 30.9777C46.3327 30.484 46.681 30.1294 47.035 30.1855C47.389 30.2418 47.6146 30.6875 47.5389 31.1811C47.4631 31.6748 47.1147 32.0295 46.7607 31.9733C46.4067 31.9171 46.181 31.4714 46.2569 30.9777ZM43.1462 31.6258C42.9516 31.9869 43.1886 32.4996 43.6755 32.7709C44.1623 33.0423 44.7149 32.9696 44.9095 32.6084C45.104 32.2473 44.8672 31.7346 44.3801 31.4633C43.8931 31.1921 43.3407 31.2648 43.1462 31.6258Z" fill="#916D53"/>
<path d="M44.0006 28.1378C43.9934 27.6489 44.0505 26.841 44.3907 26.6908C44.3911 26.6906 44.3909 26.6906 44.3914 26.6905C44.9727 26.4177 45.7424 28.4323 45.7778 30.2211C45.3184 29.9098 44.7787 29.7777 44.2235 29.8428C44.084 29.267 44.0171 28.7245 44.0006 28.1378Z" fill="#5B453E"/>
</svg>
