<svg width="93" height="65" viewBox="0 0 93 65" fill="none" xmlns="http://www.w3.org/2000/svg">
<g clip-path="url(#clip0_14372_1198)">
<path fill-rule="evenodd" clip-rule="evenodd" d="M38.4636 7.05588C41.4437 3.9515 45.5953 2.02377 50.1847 2.02377C56.2853 2.02377 61.6095 5.42636 64.444 10.4777C66.9801 9.34482 69.727 8.76092 72.5047 8.76425C83.509 8.76425 92.4289 17.763 92.4289 28.8654C92.4289 39.9678 83.509 48.9665 72.5047 48.9665C71.1592 48.9665 69.8471 48.8321 68.5784 48.5763C66.0826 53.0272 61.3234 56.0355 55.8637 56.0355C53.5781 56.0355 51.4159 55.5099 49.4922 54.5688C46.961 60.5228 41.0646 64.6957 34.1937 64.6957C27.0388 64.6957 20.9392 60.167 18.599 53.8177C17.5563 54.0377 16.4936 54.1485 15.4279 54.1483C6.90731 54.1493 4.28515e-05 47.1702 4.28515e-05 38.5606C-0.00634944 35.8322 0.702531 33.1497 2.05602 30.7806C3.4095 28.4115 5.36032 26.4386 7.71399 25.0585C6.73753 22.8085 6.23513 20.3815 6.23812 17.9288C6.23812 8.02632 14.2755 1.22005e-05 24.1901 1.22005e-05C26.9521 -0.00321023 29.6775 0.631948 32.1534 1.8559C34.6294 3.07986 36.789 4.8595 38.4636 7.05588Z" fill="#00A1E0"/>
<path fill-rule="evenodd" clip-rule="evenodd" d="M13.3868 33.551L13.7608 32.5128C13.8205 32.3349 13.9549 32.3935 14.0095 32.4269C14.1136 32.4886 14.1884 32.5442 14.3229 32.623C15.4247 33.3195 16.4457 33.3266 16.7641 33.3266C17.589 33.3266 18.1005 32.8899 18.1005 32.3005V32.2702C18.1005 31.6293 17.312 31.3867 16.4012 31.1077L16.199 31.043C14.9486 30.6872 13.6112 30.1727 13.6112 28.5896V28.5573C13.6112 27.0551 14.8233 26.0069 16.5579 26.0069L16.748 26.0048C17.7669 26.0048 18.7515 26.301 19.4652 26.7337C19.5299 26.7741 19.5925 26.8489 19.5561 26.948L19.172 27.9861C19.1043 28.163 18.9193 28.0458 18.9193 28.0458C18.1747 27.6578 17.3508 27.4465 16.5114 27.4281C15.7755 27.4281 15.3024 27.8183 15.3024 28.348V28.3814C15.3024 28.999 16.1131 29.2629 17.0532 29.5692L17.215 29.6197C18.4614 30.0139 19.7917 30.5598 19.7917 32.061V32.0923C19.7917 33.7147 18.613 34.7226 16.7176 34.7226C15.7866 34.7226 14.896 34.579 13.9539 34.0787C13.776 33.9755 13.6001 33.8866 13.4262 33.7602C13.408 33.7339 13.3282 33.7026 13.3858 33.551H13.3868ZM41.1423 33.551L41.5173 32.5128C41.5719 32.343 41.7306 32.4057 41.765 32.4269C41.8681 32.4906 41.9449 32.5442 42.0783 32.623C43.1822 33.3195 44.2011 33.3266 44.5226 33.3266C45.3444 33.3266 45.857 32.8899 45.857 32.3005V32.2702C45.857 31.6293 45.0695 31.3867 44.1587 31.1077L43.9565 31.043C42.704 30.6872 41.3667 30.1727 41.3667 28.5896V28.5573C41.3667 27.0551 42.5797 26.0069 44.3144 26.0069L44.5034 26.0048C45.5224 26.0048 46.5079 26.301 47.2226 26.7337C47.2853 26.7741 47.349 26.8489 47.3136 26.948C47.2782 27.04 46.9628 27.8891 46.9295 27.9861C46.8597 28.163 46.6768 28.0458 46.6768 28.0458C45.9319 27.6576 45.1076 27.4463 44.2679 27.4281C43.5319 27.4281 43.0589 27.8183 43.0589 28.348V28.3814C43.0589 28.999 43.8686 29.2629 44.8097 29.5692L44.9714 29.6197C46.2178 30.0139 47.5471 30.5598 47.5471 32.061V32.0923C47.5471 33.7147 46.3695 34.7226 44.4741 34.7226C43.5421 34.7226 42.6515 34.579 41.7104 34.0787C41.5324 33.9755 41.3566 33.8866 41.1817 33.7602C41.1635 33.7339 41.0836 33.7026 41.1423 33.551ZM61.673 28.6695C61.8287 29.1911 61.9055 29.7643 61.9055 30.3698C61.9055 30.9763 61.8287 31.5474 61.673 32.069C61.5307 32.572 61.2864 33.0403 60.9553 33.4448C60.6236 33.8377 60.2076 34.1508 59.7382 34.3607C59.253 34.5831 58.6829 34.6943 58.042 34.6943C57.4011 34.6943 56.8289 34.5831 56.3457 34.3607C55.8764 34.1508 55.4604 33.8377 55.1286 33.4448C54.7979 33.0403 54.5533 32.5725 54.4099 32.0701C54.251 31.5174 54.1727 30.9448 54.1774 30.3698C54.1774 29.7633 54.2553 29.1911 54.4099 28.6695C54.5656 28.1438 54.8072 27.6809 55.1276 27.2947C55.4601 26.9002 55.8762 26.5846 56.3457 26.3708C56.8299 26.1443 57.3991 26.0301 58.042 26.0301C58.6849 26.0301 59.254 26.1443 59.7382 26.3708C60.2214 26.5962 60.6318 26.9065 60.9553 27.2947C61.2768 27.6809 61.5194 28.1438 61.673 28.6695ZM60.092 30.3698C60.092 29.4529 59.9222 28.7322 59.5846 28.2267C59.251 27.7253 58.7455 27.4827 58.042 27.4827C57.3384 27.4827 56.837 27.7253 56.5075 28.2267C56.1769 28.7322 56.0081 29.4529 56.0081 30.3698C56.0081 31.2856 56.1769 32.0114 56.5095 32.5209C56.837 33.0284 57.3384 33.274 58.042 33.274C58.7455 33.274 59.251 33.0274 59.5846 32.5209C59.9202 32.0114 60.092 31.2856 60.092 30.3698ZM74.6708 33.0284L75.0589 34.1019C75.1095 34.2333 74.9953 34.2909 74.9953 34.2909C74.3958 34.5234 73.5639 34.6892 72.7542 34.6892C71.3814 34.6892 70.3301 34.294 69.6286 33.5136C68.9311 32.7352 68.5752 31.6768 68.5752 30.3637C68.5752 29.7562 68.6632 29.181 68.835 28.6604C69.0069 28.1347 69.2646 27.6718 69.6043 27.2856C69.957 26.8886 70.392 26.5733 70.879 26.3617C71.3844 26.1363 71.9788 26.023 72.642 26.023C73.0898 26.023 73.4881 26.0503 73.8297 26.1009C74.1947 26.1575 74.6809 26.2889 74.8861 26.3688C74.9235 26.3829 75.0276 26.4334 74.9852 26.5558C74.8355 26.9773 74.7334 27.2523 74.595 27.6364C74.5343 27.8001 74.411 27.7456 74.411 27.7456C73.8904 27.5818 73.391 27.507 72.739 27.507C71.9556 27.507 71.3673 27.7678 70.9831 28.2783C70.5949 28.7928 70.3776 29.4671 70.3746 30.3637C70.3715 31.3473 70.6182 32.0761 71.0549 32.527C71.4906 32.9768 72.0991 33.2043 72.8654 33.2043C73.1757 33.2043 73.4689 33.184 73.7327 33.1426C73.9935 33.1011 74.2381 33.0203 74.4686 32.9303C74.4686 32.9303 74.6172 32.8747 74.6708 33.0284ZM82.7678 28.3713C83.1125 29.5783 82.9326 30.6205 82.9266 30.6781C82.9134 30.8156 82.7719 30.8176 82.7719 30.8176L77.4153 30.8135C77.4486 31.6273 77.6437 32.2035 78.038 32.5947C78.4251 32.9778 79.0397 33.2235 79.8717 33.2245C81.1434 33.2275 81.6862 32.9718 82.0714 32.8292C82.0714 32.8292 82.2179 32.7767 82.2735 32.9222L82.6223 33.9038C82.693 34.0685 82.6364 34.1262 82.5768 34.1595C82.2412 34.3445 81.4274 34.6902 79.8788 34.6943C79.1277 34.6973 78.4737 34.5902 77.9349 34.3809C77.4229 34.1913 76.9617 33.8858 76.5874 33.4883C76.2296 33.0983 75.964 32.633 75.81 32.1267C75.6442 31.5719 75.5628 30.9953 75.5684 30.4163C75.5684 29.8098 75.6463 29.2336 75.8029 28.7069C75.9596 28.1762 76.2033 27.7082 76.5277 27.3149C76.864 26.9136 77.2857 26.5924 77.762 26.3748C78.2533 26.1433 78.8618 26.0301 79.531 26.0301C80.1042 26.0301 80.6278 26.1534 81.0635 26.3415C81.3991 26.485 81.7367 26.7448 82.0825 27.1168C82.3008 27.3513 82.6334 27.8648 82.7678 28.3713ZM77.4406 29.4903H81.2616C81.2222 28.999 81.1262 28.5583 80.9058 28.2267C80.5702 27.7253 80.1072 27.4494 79.4047 27.4494C78.7011 27.4494 78.2017 27.7253 77.8712 28.2267C77.6549 28.5583 77.5164 28.9808 77.4406 29.4903ZM39.8615 28.3713C40.2052 29.5783 40.0283 30.6205 40.0222 30.6781C40.0081 30.8156 39.8665 30.8176 39.8665 30.8176L34.5089 30.8135C34.5433 31.6273 34.7374 32.2035 35.1326 32.5947C35.5198 32.9778 36.1334 33.2235 36.9653 33.2245C38.237 33.2275 38.7819 32.9718 39.166 32.8292C39.166 32.8292 39.3126 32.7767 39.3672 32.9222L39.7169 33.9038C39.7877 34.0685 39.7311 34.1262 39.6725 34.1595C39.3348 34.3445 38.5201 34.6902 36.9734 34.6943C36.2213 34.6973 35.5673 34.5902 35.0295 34.3809C34.5174 34.191 34.0559 33.8856 33.681 33.4883C33.3242 33.098 33.0593 32.6327 32.9057 32.1267C32.7387 31.5721 32.6565 30.9954 32.6621 30.4163C32.6621 29.8098 32.7409 29.2336 32.8966 28.7069C33.0422 28.1987 33.2891 27.7253 33.6224 27.3149C33.9586 26.9139 34.3799 26.5928 34.8557 26.3748C35.349 26.1433 35.9575 26.0301 36.6247 26.0301C37.152 26.0289 37.6741 26.1348 38.1592 26.3415C38.4948 26.485 38.8324 26.7448 39.1771 27.1168C39.3955 27.3513 39.728 27.8648 39.8615 28.3713ZM34.5332 29.4903H38.3563C38.3159 28.999 38.2198 28.5583 38.0005 28.2267C37.6669 27.7253 37.2019 27.4494 36.4993 27.4494C35.7958 27.4494 35.2954 27.7253 34.9669 28.2267C34.7485 28.5583 34.611 28.9808 34.5332 29.4903ZM25.0856 29.2346C25.0856 29.2346 25.5081 29.272 25.9691 29.3387V29.1123C25.9691 28.3976 25.8205 28.0609 25.5284 27.8355C25.2291 27.6071 24.7823 27.4888 24.2041 27.4888C24.2041 27.4888 22.9001 27.4726 21.869 28.0326C21.8215 28.0609 21.7821 28.0771 21.7821 28.0771C21.7821 28.0771 21.6527 28.1226 21.6062 27.9902L21.2271 26.9712C21.1685 26.8247 21.2746 26.7579 21.2746 26.7579C21.7568 26.3819 22.9254 26.1544 22.9254 26.1544C23.3998 26.0711 23.8802 26.0268 24.3618 26.022C25.4313 26.022 26.2592 26.2707 26.8223 26.763C27.3863 27.2573 27.6734 28.0539 27.6734 29.1274L27.6765 34.0281C27.6765 34.0281 27.6876 34.1696 27.5531 34.202C27.5531 34.202 27.356 34.2566 27.1791 34.298C27.0002 34.3395 26.3553 34.4709 25.8286 34.5598C25.2908 34.65 24.7464 34.6953 24.2011 34.6953C23.6805 34.6953 23.2034 34.6468 22.7828 34.5507C22.3909 34.4686 22.0198 34.3077 21.6921 34.0776C21.3934 33.8608 21.1537 33.5727 20.9946 33.2396C20.8298 32.903 20.747 32.4916 20.747 32.0165C20.747 31.5505 20.845 31.135 21.034 30.7812C21.2241 30.4294 21.4849 30.1312 21.8124 29.8977C22.1508 29.6595 22.5291 29.4838 22.9294 29.3791C23.3469 29.2679 23.7907 29.2103 24.2496 29.2103C24.5862 29.2103 24.8673 29.2174 25.0856 29.2346ZM22.9537 32.999C22.9506 32.998 23.4338 33.3781 24.5246 33.3114C25.2908 33.2649 25.9701 33.1193 25.9701 33.1193V30.6831C25.9701 30.6831 25.2847 30.5709 24.5155 30.5598C23.4247 30.5467 22.9597 30.948 22.9628 30.947C22.6413 31.1754 22.4846 31.5141 22.4846 31.9831C22.4846 32.2833 22.5382 32.5179 22.6464 32.6816C22.7141 32.7898 22.7434 32.8302 22.9537 32.999ZM68.2962 26.4739C68.2457 26.6205 67.9859 27.3544 67.8919 27.598C67.8575 27.691 67.8009 27.7547 67.6968 27.7435C67.6968 27.7435 67.3895 27.6728 67.1085 27.6728C66.9154 27.6728 66.6394 27.697 66.3907 27.7739C66.1413 27.8505 65.9144 27.9869 65.7296 28.1711C65.5335 28.3602 65.3748 28.626 65.2596 28.9596C65.1423 29.2952 65.0817 29.829 65.0817 30.3647V34.3556C65.0818 34.377 65.0777 34.3981 65.0696 34.4178C65.0616 34.4376 65.0497 34.4555 65.0347 34.4707C65.0196 34.4858 65.0017 34.4978 64.9821 34.506C64.9624 34.5142 64.9412 34.5184 64.9199 34.5184H63.5138C63.4923 34.5186 63.471 34.5147 63.451 34.5067C63.431 34.4987 63.4128 34.4869 63.3974 34.4718C63.382 34.4568 63.3697 34.4389 63.3613 34.4192C63.3528 34.3994 63.3483 34.3781 63.348 34.3566V26.3657C63.348 26.2758 63.4137 26.204 63.5037 26.204H64.8755C64.9664 26.204 65.0311 26.2758 65.0311 26.3657V27.0187C65.2363 26.7438 65.6043 26.5012 65.9369 26.3516C66.2704 26.1999 66.6435 26.0887 67.3177 26.1292C67.6685 26.1504 68.1244 26.2464 68.2164 26.2818C68.2344 26.289 68.2507 26.2997 68.2645 26.3133C68.2783 26.327 68.2892 26.3432 68.2967 26.3611C68.3041 26.379 68.3079 26.3981 68.3078 26.4175C68.3078 26.4369 68.3038 26.4561 68.2962 26.4739ZM55.0842 22.7711C55.1216 22.7862 55.2237 22.8358 55.1832 22.9571L54.7718 24.0822C54.7374 24.1671 54.7152 24.2176 54.5403 24.1651C54.309 24.0923 54.0681 24.0548 53.8256 24.0539C53.6134 24.0539 53.4213 24.0812 53.2515 24.1378C53.0815 24.1922 52.9275 24.2873 52.8026 24.4147C52.6365 24.5753 52.5081 24.7707 52.4266 24.9869C52.2295 25.553 52.1537 26.1565 52.1435 26.1949H53.856C54.0005 26.1949 54.046 26.2616 54.0318 26.3677L53.8317 27.4817C53.7994 27.6435 53.6528 27.6374 53.6528 27.6374H51.8878L50.6818 34.4668C50.5781 35.0793 50.4205 35.6814 50.2108 36.2662C50.0217 36.7605 49.8266 37.1214 49.5133 37.4661C49.2458 37.7746 48.9057 38.0115 48.5236 38.1555C48.1526 38.292 47.7018 38.3617 47.2095 38.3617C46.975 38.3617 46.7223 38.3567 46.424 38.2859C46.2579 38.2479 46.0942 38.2 45.9338 38.1423C45.8681 38.1191 45.8145 38.0352 45.8529 37.928C45.8893 37.8219 46.2067 36.9536 46.2492 36.8393C46.3038 36.7019 46.4433 36.7544 46.4433 36.7544C46.5383 36.7949 46.605 36.8211 46.7313 36.8464C46.8597 36.8717 47.0316 36.8939 47.162 36.8939C47.3955 36.8939 47.6078 36.8656 47.7928 36.8029C48.0152 36.7312 48.1466 36.6008 48.282 36.4269C48.4235 36.2439 48.5388 35.9963 48.6571 35.6637C48.7753 35.3271 48.8835 34.8823 48.9765 34.3435L50.1774 27.6384H48.9947C48.8532 27.6384 48.8046 27.5717 48.8208 27.4645L49.0189 26.3506C49.0503 26.1888 49.2009 26.1949 49.2009 26.1949H50.415L50.4807 25.833C50.6626 24.7574 51.0235 23.9396 51.5572 23.4029C52.094 22.862 52.8572 22.5891 53.8256 22.5891C54.1026 22.5891 54.3472 22.6073 54.5545 22.6447C54.7577 22.6831 54.9123 22.7185 55.0842 22.7711ZM31.1508 34.3556C31.1508 34.4466 31.0881 34.5184 30.9972 34.5184H29.5769C29.4859 34.5184 29.4243 34.4456 29.4243 34.3566V22.9207C29.4243 22.8327 29.4869 22.7599 29.5759 22.7599H30.9972C31.0881 22.7599 31.1508 22.8327 31.1508 22.9217V34.3556Z" fill="white"/>
</g>
<defs>
<clipPath id="clip0_14372_1198">
<rect width="93" height="64.6956" fill="white"/>
</clipPath>
</defs>
</svg>
