<svg width="132" height="132" viewBox="0 0 132 132" fill="none" xmlns="http://www.w3.org/2000/svg">
<g filter="url(#filter0_d_14372_1154)">
<rect x="6" y="2" width="120" height="120" rx="16" fill="white"/>
<g clip-path="url(#clip0_14372_1154)">
<path fill-rule="evenodd" clip-rule="evenodd" d="M78.5175 94.3666L78.3691 37.3502C77.9846 36.9662 77.2347 37.0821 76.9416 37.1677L74.9889 37.7723C74.7479 36.98 74.4351 36.2112 74.0545 35.4756C72.6689 32.833 70.6439 31.4356 68.1925 31.4318H68.1849C68.0212 31.4318 67.8594 31.447 67.6958 31.4603L67.6767 31.4622C67.6059 31.375 67.5322 31.29 67.456 31.2075C66.3902 30.0668 65.0198 29.5097 63.3793 29.5572C60.2161 29.6485 57.0663 31.9337 54.5102 35.9927C52.7117 38.8502 51.3471 42.4378 50.9569 45.2154L44.7276 47.1451C42.8948 47.7211 42.8377 47.7782 42.596 49.5063C42.4152 50.8144 37.6172 87.9235 37.6172 87.9235L77.8285 94.878L78.5175 94.3666ZM65.3434 32.1638C64.8086 31.812 64.1824 31.6485 63.4402 31.6638C58.5565 31.8044 54.2971 39.4339 53.2103 44.5176L57.8884 43.0689L58.724 42.8104C59.3368 39.5822 60.8746 36.2323 62.8863 34.0764C63.5897 33.3038 64.42 32.657 65.3415 32.1638H65.3434ZM61.0364 42.0936L67.751 40.0137C67.7719 38.2647 67.5816 35.6791 66.7061 33.8539C65.7735 34.238 64.9894 34.911 64.426 35.5136C62.9168 37.1354 61.6854 39.6088 61.0383 42.0936H61.0364ZM69.854 39.3635L72.9753 38.3958C72.4767 36.776 71.2929 34.0611 68.8929 33.6049C69.639 35.5308 69.8312 37.7608 69.854 39.3635Z" fill="#95BF47"/>
<path d="M87.527 41.5917C87.2872 41.5726 82.6395 41.5004 82.6395 41.5004C82.6395 41.5004 78.7512 37.7246 78.3667 37.3387C78.2179 37.2015 78.0293 37.1149 77.8281 37.0916V94.8685L95.2522 90.5357C95.2522 90.5357 88.1417 42.4529 88.096 42.124C88.074 41.9843 88.0059 41.856 87.9024 41.7595C87.7989 41.663 87.668 41.6039 87.527 41.5917Z" fill="#5E8E3E"/>
<path d="M68.1712 50.5636L66.1462 58.1379C66.1462 58.1379 63.889 57.1094 61.2111 57.2786C57.2867 57.5257 57.2448 60.003 57.2848 60.6247C57.4979 64.0088 66.4069 64.7502 66.9075 72.6838C67.3014 78.9254 63.5978 83.1974 58.2611 83.532C51.8568 83.9369 48.3301 80.1574 48.3301 80.1574L49.6871 74.3816C49.6871 74.3816 53.2366 77.0604 56.0762 76.8798C57.9338 76.7638 58.5961 75.2542 58.5295 74.1858C58.2497 69.7693 50.9946 70.0279 50.5359 62.7692C50.1515 56.6569 54.1616 50.4685 63.0135 49.9096C66.424 49.6929 68.1712 50.5655 68.1712 50.5655" fill="white"/>
</g>
</g>
<defs>
<filter id="filter0_d_14372_1154" x="0" y="0" width="132" height="132" filterUnits="userSpaceOnUse" color-interpolation-filters="sRGB">
<feFlood flood-opacity="0" result="BackgroundImageFix"/>
<feColorMatrix in="SourceAlpha" type="matrix" values="0 0 0 0 0 0 0 0 0 0 0 0 0 0 0 0 0 0 127 0" result="hardAlpha"/>
<feOffset dy="4"/>
<feGaussianBlur stdDeviation="3"/>
<feComposite in2="hardAlpha" operator="out"/>
<feColorMatrix type="matrix" values="0 0 0 0 0.13776 0 0 0 0 0.137186 0 0 0 0 0.137186 0 0 0 0.15 0"/>
<feBlend mode="normal" in2="BackgroundImageFix" result="effect1_dropShadow_14372_1154"/>
<feBlend mode="normal" in="SourceGraphic" in2="effect1_dropShadow_14372_1154" result="shape"/>
</filter>
<clipPath id="clip0_14372_1154">
<rect width="59" height="66.5414" fill="white" transform="translate(37 29.0002)"/>
</clipPath>
</defs>
</svg>
