<svg width="64" height="64" viewBox="0 0 64 64" fill="none" xmlns="http://www.w3.org/2000/svg">
<path d="M13.4463 40.4429C13.4463 44.1432 10.4235 47.166 6.72313 47.166C3.0228 47.166 0 44.1432 0 40.4429C0 36.7425 3.0228 33.7197 6.72313 33.7197H13.4463V40.4429Z" fill="#E01E5A"/>
<path d="M16.832 40.4429C16.832 36.7425 19.8548 33.7197 23.5552 33.7197C27.2555 33.7197 30.2783 36.7425 30.2783 40.4429V57.2767C30.2783 60.9771 27.2555 63.9999 23.5552 63.9999C19.8548 63.9999 16.832 60.9771 16.832 57.2767V40.4429Z" fill="#E01E5A"/>
<path d="M23.5571 13.4472C19.8568 13.4472 16.834 10.4244 16.834 6.7241C16.834 3.02378 19.8568 0.000976562 23.5571 0.000976562C27.2574 0.000976562 30.2802 3.02378 30.2802 6.7241V13.4472H23.5571Z" fill="#36C5F0"/>
<path d="M23.557 16.8357C27.2573 16.8357 30.2801 19.8585 30.2801 23.5588C30.2801 27.2591 27.2573 30.2819 23.557 30.2819H6.72313C3.0228 30.2819 0 27.2591 0 23.5588C0 19.8585 3.0228 16.8357 6.72313 16.8357H23.557Z" fill="#36C5F0"/>
<path d="M50.5527 23.5588C50.5527 19.8585 53.5755 16.8357 57.2759 16.8357C60.9762 16.8357 63.999 19.8585 63.999 23.5588C63.999 27.2591 60.9762 30.2819 57.2759 30.2819H50.5527V23.5588Z" fill="#2EB67D"/>
<path d="M47.167 23.558C47.167 27.2583 44.1442 30.2811 40.4438 30.2811C36.7435 30.2811 33.7207 27.2583 33.7207 23.558V6.7241C33.7207 3.02378 36.7435 0.000976562 40.4438 0.000976562C44.1442 0.000976562 47.167 3.02378 47.167 6.7241V23.558Z" fill="#2EB67D"/>
<path d="M40.4438 50.5547C44.1442 50.5547 47.167 53.5775 47.167 57.2778C47.167 60.9781 44.1442 64.0009 40.4438 64.0009C36.7435 64.0009 33.7207 60.9781 33.7207 57.2778V50.5547H40.4438Z" fill="#ECB22E"/>
<path d="M40.4438 47.166C36.7435 47.166 33.7207 44.1432 33.7207 40.4429C33.7207 36.7425 36.7435 33.7197 40.4438 33.7197H57.2777C60.978 33.7197 64.0008 36.7425 64.0008 40.4429C64.0008 44.1432 60.978 47.166 57.2777 47.166H40.4438Z" fill="#ECB22E"/>
</svg>
