<svg width="64" height="64" viewBox="0 0 64 64" fill="none" xmlns="http://www.w3.org/2000/svg">
<path d="M32 64C49.6731 64 64 49.6731 64 32C64 14.3269 49.6731 0 32 0C14.3269 0 0 14.3269 0 32C0 49.6731 14.3269 64 32 64Z" fill="url(#paint0_linear_14372_1185)"/>
<path fill-rule="evenodd" clip-rule="evenodd" d="M12.8008 19.2057C12.8008 15.668 15.6557 12.8 19.2065 12.8H44.7951C48.3329 12.8 51.2008 15.6549 51.2008 19.2057V44.7944C51.2008 48.3321 48.3459 51.2 44.7951 51.2H19.2065C15.6687 51.2 12.8008 48.3452 12.8008 44.7944V19.2057ZM34.4961 20.0974V32.2871C34.4961 33.5603 35.5274 34.5922 36.7995 34.5922H43.9047C45.1764 34.5922 46.2081 33.5602 46.2081 32.2871V20.0974C46.2081 18.8242 45.1768 17.7922 43.9047 17.7922H36.7995C35.5278 17.7922 34.4961 18.8243 34.4961 20.0974ZM17.7928 41.8897V20.0945C17.7928 18.8229 18.8244 17.7921 20.0962 17.7921H27.2013C28.4735 17.7921 29.5048 18.8229 29.5048 20.0945V41.8897C29.5048 43.1613 28.4731 44.1921 27.2013 44.1921H20.0962C18.824 44.1921 17.7928 43.1612 17.7928 41.8897Z" fill="#F2FAFF"/>
<defs>
<linearGradient id="paint0_linear_14372_1185" x1="0" y1="0" x2="0" y2="64" gradientUnits="userSpaceOnUse">
<stop stop-color="#0091E6"/>
<stop offset="1" stop-color="#0079BF"/>
</linearGradient>
</defs>
</svg>
