<svg width="132" height="132" viewBox="0 0 132 132" fill="none" xmlns="http://www.w3.org/2000/svg">
<g filter="url(#filter0_d_14372_1142)">
<rect x="6" y="2" width="120" height="120" rx="16" fill="white"/>
<path d="M66 94C83.6731 94 98 79.6731 98 62C98 44.3269 83.6731 30 66 30C48.3269 30 34 44.3269 34 62C34 79.6731 48.3269 94 66 94Z" fill="#2D8CFF"/>
<path fill-rule="evenodd" clip-rule="evenodd" d="M84.7835 51.2472L75.74 57.8454V66.1801L84.7835 72.7783C85.4234 73.2672 86.1748 73.4183 86.1748 72.0838V51.9417C86.1748 50.7519 85.5719 50.6023 84.7835 51.2472ZM45.1306 67.009V51.9831C45.1306 51.3684 45.6334 50.8696 46.2536 50.8696H68.1674C71.5796 50.8696 74.348 53.6103 74.348 56.9912V72.0171C74.348 72.6317 73.8452 73.1305 73.225 73.1305H51.3112C47.8991 73.1305 45.1306 70.3898 45.1306 67.009Z" fill="#F2FAFF"/>
</g>
<defs>
<filter id="filter0_d_14372_1142" x="0" y="0" width="132" height="132" filterUnits="userSpaceOnUse" color-interpolation-filters="sRGB">
<feFlood flood-opacity="0" result="BackgroundImageFix"/>
<feColorMatrix in="SourceAlpha" type="matrix" values="0 0 0 0 0 0 0 0 0 0 0 0 0 0 0 0 0 0 127 0" result="hardAlpha"/>
<feOffset dy="4"/>
<feGaussianBlur stdDeviation="3"/>
<feComposite in2="hardAlpha" operator="out"/>
<feColorMatrix type="matrix" values="0 0 0 0 0.13776 0 0 0 0 0.137186 0 0 0 0 0.137186 0 0 0 0.15 0"/>
<feBlend mode="normal" in2="BackgroundImageFix" result="effect1_dropShadow_14372_1142"/>
<feBlend mode="normal" in="SourceGraphic" in2="effect1_dropShadow_14372_1142" result="shape"/>
</filter>
</defs>
</svg>
